<?xml version="1.0" standalone="no"?>
<!DOCTYPE svg PUBLIC "-//W3C//DTD SVG 20010904//EN"
 "http://www.w3.org/TR/2001/REC-SVG-20010904/DTD/svg10.dtd">
<svg version="1.0" xmlns="http://www.w3.org/2000/svg"
 width="500.000000pt" height="500.000000pt" viewBox="0 0 500.000000 500.000000"
 preserveAspectRatio="xMidYMid meet">
<metadata>
Created by potrace 1.14, written by Peter Selinger 2001-2017
</metadata>
<g transform="translate(0.000000,500.000000) scale(0.100000,-0.100000)"
fill="#000000" stroke="none">
<path d="M2315 3460 c-284 -45 -470 -207 -507 -443 -24 -159 25 -302 146 -422
105 -105 204 -148 537 -234 274 -72 332 -99 369 -175 40 -83 21 -158 -58 -236
-78 -76 -137 -95 -292 -94 -94 0 -125 4 -171 23 -107 41 -183 134 -220 266
-19 70 2 66 -221 46 l-158 -14 0 -31 c0 -56 32 -161 77 -256 115 -240 343
-359 688 -360 274 0 471 65 598 199 144 153 191 366 127 572 -62 201 -222 318
-550 403 -364 95 -452 129 -492 194 -23 38 -27 106 -8 141 18 34 88 80 149 98
74 22 228 22 301 0 96 -28 156 -96 185 -207 9 -35 16 -45 31 -43 10 1 94 5
187 8 l167 7 0 40 c0 112 -63 251 -157 346 -72 73 -180 129 -303 157 -88 20
-335 29 -425 15z"/>
</g>
</svg>
