<?xml version="1.0" standalone="no"?>
<!DOCTYPE svg PUBLIC "-//W3C//DTD SVG 20010904//EN"
 "http://www.w3.org/TR/2001/REC-SVG-20010904/DTD/svg10.dtd">
<svg version="1.0" xmlns="http://www.w3.org/2000/svg"
 width="310.000000pt" height="310.000000pt" viewBox="0 0 310.000000 310.000000"
 preserveAspectRatio="xMidYMid meet">
<metadata>
Created by potrace 1.14, written by Peter Selinger 2001-2017
</metadata>
<g transform="translate(0.000000,310.000000) scale(0.100000,-0.100000)"
fill="#000000" stroke="none">
<path d="M1385 3053 c-70 -6 -143 -29 -180 -56 -22 -15 -69 -47 -105 -70 -75
-49 -151 -146 -226 -292 -26 -49 -60 -105 -75 -123 -43 -48 -116 -204 -89
-187 14 9 12 -11 -2 -27 -37 -40 -43 -64 -44 -178 -2 -148 -12 -302 -24 -354
-9 -41 -14 -123 -6 -115 2 2 6 21 9 42 7 51 17 60 17 15 0 -47 33 -152 64
-203 92 -152 96 -161 85 -194 -14 -40 -6 -73 30 -113 41 -47 71 -112 71 -152
0 -33 42 -137 65 -162 6 -6 9 -50 7 -102 l-3 -91 -45 6 c-55 7 -66 -1 -93 -77
-18 -49 -32 -68 -78 -105 -70 -57 -256 -149 -343 -169 -36 -9 -96 -25 -135
-36 -53 -16 -261 -60 -282 -60 -2 0 -3 -56 -3 -125 l0 -125 1397 0 c768 0
1393 4 1388 8 -14 12 -109 48 -190 72 -38 12 -95 30 -125 41 -30 11 -77 28
-105 37 -27 9 -59 26 -71 37 -11 11 -39 30 -60 43 -21 13 -54 36 -73 53 -26
22 -36 26 -43 17 -4 -8 -8 6 -8 34 0 26 -4 50 -10 53 -5 3 -10 26 -10 49 0 27
-7 52 -18 66 -16 20 -24 22 -65 16 -26 -4 -49 -11 -51 -15 -3 -4 -6 -35 -7
-70 -2 -41 -8 -70 -19 -84 -25 -30 -91 -46 -215 -54 -99 -5 -116 -4 -158 15
-45 20 -47 23 -47 62 0 22 -4 48 -9 58 -6 9 -19 42 -29 72 -28 79 -19 95 61
109 35 6 84 11 108 11 68 0 89 9 85 34 -2 17 -15 23 -74 36 -94 20 -107 36
-98 129 6 62 5 69 -18 94 -14 15 -33 27 -43 27 -17 1 -17 1 -1 14 10 7 15 16
12 19 -3 3 -1 14 5 26 8 15 23 21 59 23 l47 3 0 55 0 55 38 1 c35 0 39 3 36
22 -1 4 0 18 1 30 1 13 -8 33 -19 43 -33 31 -29 97 9 132 30 29 30 29 30 145
0 65 5 135 10 157 6 24 6 74 0 128 -10 98 -29 132 -102 178 -61 38 -80 94 -47
141 32 45 72 59 178 65 70 4 105 11 129 25 42 25 40 30 -5 23 -36 -6 -37 -5
-19 9 11 9 28 17 38 17 26 2 27 2 99 37 72 35 99 40 99 17 0 -7 6 -18 13 -22
14 -9 67 -99 67 -115 0 -5 16 -29 35 -52 19 -24 35 -48 35 -54 0 -5 15 -25 34
-44 45 -45 56 -107 58 -333 1 -77 5 -129 8 -115 5 17 7 6 8 -34 0 -32 -4 -70
-9 -85 -6 -14 -11 -28 -11 -31 0 -3 -5 -16 -10 -30 -9 -25 -9 -25 10 -5 11 11
18 23 16 27 -3 4 0 9 5 12 5 3 12 26 16 51 3 25 13 62 22 83 14 33 16 35 28
19 14 -19 14 -19 42 28 6 11 28 52 48 90 20 39 52 98 71 133 19 34 36 76 36
93 1 31 21 49 54 49 29 0 123 51 145 78 30 38 22 155 -10 151 -30 -5 -77 12
-88 30 -7 11 -13 39 -14 63 -1 23 -9 57 -18 73 -9 17 -16 35 -17 40 -1 6 -3
13 -4 18 -3 10 -5 15 -14 62 -10 51 -73 133 -126 165 -23 14 -50 32 -59 40
-52 47 -108 84 -207 134 -61 31 -115 56 -122 56 -6 0 -22 11 -36 25 -14 14
-35 25 -47 25 -12 0 -44 7 -73 17 -28 9 -56 17 -63 19 -6 2 -9 12 -6 23 3 12
9 19 13 16 5 -3 11 -1 15 5 4 6 -19 11 -62 12 -37 1 -90 3 -118 4 -27 1 -77 7
-110 13 -53 9 -173 11 -260 4z"/>
<path d="M1962 1937 c-42 -7 -52 -12 -50 -25 2 -11 14 -18 33 -19 39 -4 136
19 138 32 3 15 -62 22 -121 12z"/>
<path d="M1923 1830 c-27 -12 -42 -25 -42 -37 0 -10 -1 -26 -3 -37 -2 -14 7
-22 45 -33 27 -8 63 -13 80 -11 27 3 32 8 38 38 4 19 12 36 18 38 15 5 -39 48
-69 55 -15 4 -42 -1 -67 -13z"/>
<path d="M1820 1430 c0 -5 7 -10 16 -10 8 0 12 5 9 10 -3 6 -10 10 -16 10 -5
0 -9 -4 -9 -10z"/>
<path d="M2710 881 c0 -6 4 -13 10 -16 6 -3 7 1 4 9 -7 18 -14 21 -14 7z"/>
</g>
</svg>
